<?xml version="1.0" encoding="UTF-8" standalone="no"?>
<!DOCTYPE svg PUBLIC "-//W3C//DTD SVG 1.1//EN" "http://www.w3.org/Graphics/SVG/1.1/DTD/svg11.dtd">
<!-- Created with Vectornator (http://vectornator.io/) -->
<svg height="100%" stroke-miterlimit="10" style="fill-rule:nonzero;clip-rule:evenodd;stroke-linecap:round;stroke-linejoin:round;" version="1.1" viewBox="0 0 1300 1300" width="100%" xml:space="preserve" xmlns="http://www.w3.org/2000/svg" xmlns:vectornator="http://vectornator.io" xmlns:xlink="http://www.w3.org/1999/xlink">
<defs/>
<clipPath id="ArtboardFrame">
<rect height="1300" width="1300" x="0" y="0"/>
</clipPath>
<g clip-path="url(#ArtboardFrame)" id="Layer-3" vectornator:layerName="Layer 3">
<g opacity="1" vectornator:layerName="Curve 1">
<path d="M575.906 1406.91C573.251 1406.98 570.42 1407.45 567.594 1408.31C556.288 1411.77 548.942 1420.5 551.188 1427.84C551.563 1428.15 551.866 1428.57 552.312 1428.75C553.067 1429.06 553.915 1429.15 554.719 1429.28C555.709 1429.44 556.69 1429.53 557.688 1429.62C559.729 1429.82 561.781 1429.97 563.812 1430.25C564.726 1430.38 565.695 1430.34 566.562 1430.66C566.997 1430.81 567.368 1431.18 567.562 1431.59C567.738 1431.97 567.562 1432.43 567.562 1432.84C568.012 1434.31 570.208 1434.94 572.469 1434.25C574.73 1433.56 576.199 1431.81 575.75 1430.34C575.75 1429.93 575.608 1429.49 575.75 1429.09C575.962 1428.51 576.336 1427.96 576.781 1427.53C577.604 1426.73 578.614 1426.16 579.531 1425.47C580.485 1424.75 581.436 1424.01 582.406 1423.31C584.477 1421.83 586.61 1420.49 588.625 1418.94C589.443 1418.31 590.276 1417.67 591 1416.94C591.456 1416.47 591.749 1415.88 592.125 1415.34C590.441 1409.83 583.871 1406.68 575.906 1406.91Z" fill="#e2ccac" stroke="none"/>
</g>
<path d="M-33.3304-53.3966L1411.67-53.3966L1411.67 1359.6L-33.3304 1359.6L-33.3304-53.3966Z" fill="#e2ccac" fill-rule="nonzero" opacity="1" stroke="#e2ccac" stroke-linecap="butt" stroke-linejoin="round" stroke-width="49.0239" vectornator:layerName="Rectangle 1"/>
</g>
<g clip-path="url(#ArtboardFrame)" id="Layer-1" vectornator:layerName="Layer 1">
<g opacity="1" vectornator:layerName="Curve 1">
<path d="M2266.56 723.025C2288.04 756.274 2309.51 789.523 2330.98 822.772" fill="#3f3a3a" fill-rule="nonzero" stroke="none"/>
<path d="M2267.5 675.188C2258.28 674.997 2248.92 677.436 2240.59 682.812C2218.39 697.151 2212.04 726.798 2226.38 749C2232.7 758.9 2239.04 768.793 2245.12 778.844C2254.1 793.665 2262.68 808.694 2271.69 823.5C2277.15 832.48 2282.91 841.304 2288.53 850.188C2303.68 873.637 2334.96 880.364 2358.41 865.219C2381.86 850.074 2388.58 818.793 2373.44 795.344C2367.65 786.569 2361.97 777.704 2356.03 769.031C2346.24 754.733 2336.07 740.717 2326.25 726.438C2319.59 716.754 2313.17 706.903 2306.75 697.062C2297.79 683.187 2282.86 675.506 2267.5 675.188Z" fill="#c29387" stroke="none"/>
</g>
<g opacity="1" vectornator:layerName="Curve 2">
<path d="M385.917 741.728C365.041 720.851 374.091 735.281 367.214 706.401C365.385 698.718 354.913 678.486 360.98 683.542C368.296 689.638 387.028 733.165 392.151 743.806C411.649 784.3 432.572 823.111 454.493 862.255C468.129 886.605 479.309 913.373 493.976 937.066C497.338 942.496 503.589 957.324 506.445 951.612C516.468 931.565 478.884 878.947 471.118 860.177C439.901 784.738 410.093 708.086 381.761 631.591C379.108 624.428 351.177 572.23 354.746 565.093C357.669 559.248 361.963 576.005 365.136 581.717C372.359 594.718 379.419 607.822 385.917 621.2C391.202 632.082 395.178 643.568 400.463 654.449C432.283 719.961 468.837 783.036 502.288 847.709C514.421 871.164 525.329 895.018 537.616 918.363C541.222 925.216 541.81 943.79 548.006 939.144C559.182 930.762 514.616 844.342 510.601 835.241C474.553 753.533 445.803 668.181 423.322 581.717C413.373 543.452 413.026 536.094 408.776 500.673C408.71 500.125 403.3 463.815 408.776 463.268C428.676 461.277 445.824 523.161 450.337 533.922C471.855 585.234 496.092 635.822 520.991 685.62C543.539 730.716 567.66 775.437 585.411 822.772C589.027 832.414 605.57 848.609 595.801 851.865C585.104 855.431 579.021 836.426 572.943 826.928C560.66 807.737 556.785 784.286 550.084 762.508C526.862 687.037 507.805 610.923 504.367 531.844C503.705 516.623 509.442 442.487 518.913 442.487C546.189 442.487 558.238 503.696 564.63 521.453C591.94 597.313 625.588 670.386 647.753 747.962C651.489 761.039 670.567 832.891 666.455 835.241C652.429 843.256 632.409 785.032 629.05 777.055C606.027 722.374 594.037 661.895 579.177 604.576C578.951 603.704 564.153 542.234 566.708 542.234C567.209 542.234 603.273 624.255 608.27 635.747C632.912 692.425 659.655 745.698 674.768 806.148C681.512 833.124 676.326 870.567 687.236 895.504C695.28 913.89 719.526 918.487 737.109 920.441C793.535 926.711 795.295 878.828 795.295 835.241C795.295 745.662 794.728 651.805 803.607 563.014C804.755 551.534 815.204 446.643 818.154 446.643C827.384 446.643 830.112 554.887 830.622 565.093C831.593 584.509 833.757 603.87 834.778 623.278C836.875 663.106 842.772 702.891 851.403 741.728" fill="#3f3a3a" fill-rule="nonzero" stroke="none"/>
<path d="M518.75 392.938C516.095 393.073 513.406 393.17 510.781 393.594C508.109 394.025 505.487 394.683 502.906 395.5C500.653 396.213 498.476 397.137 496.344 398.156C494.448 399.062 492.614 400.119 490.844 401.25C489.231 402.28 487.683 403.431 486.188 404.625C484.947 405.615 483.801 406.681 482.656 407.781C472.132 417.893 467.114 431.458 463.844 445.312C455.622 433.944 445.36 424.361 432 418.969C428.903 417.719 425.7 416.688 422.438 415.969C417.619 414.906 412.624 414.37 407.688 414.594C406.011 414.67 404.332 414.667 402.688 415C398.648 415.819 394.511 416.525 390.688 418.062C386.592 419.71 382.74 421.936 379.125 424.469C376.272 426.468 373.771 429.006 371.406 431.562C369.552 433.567 367.996 435.808 366.5 438.094C365.291 439.941 364.31 441.922 363.344 443.906C362.616 445.402 362.015 446.971 361.438 448.531C357.433 459.354 357.313 471.187 358 482.562C358.344 488.257 358.906 493.932 359.594 499.594C359.808 501.358 360.042 503.114 360.281 504.875C360.358 505.441 360.451 506.028 360.531 506.594C360.552 506.74 360.57 506.959 360.594 507.125C360.597 507.152 360.591 507.166 360.594 507.188C360.921 510.2 361.315 513.211 361.688 516.219C359.906 516.003 358.134 515.88 356.344 515.875C352.671 515.865 348.961 516.272 345.375 517.062C341.907 517.827 338.541 519.019 335.312 520.5C332.332 521.868 329.547 523.661 326.875 525.562C324.752 527.073 322.818 528.851 320.969 530.688C319.464 532.181 318.109 533.853 316.812 535.531C315.719 536.946 314.753 538.448 313.812 539.969C313.067 541.174 312.394 542.409 311.781 543.688C310.224 546.937 308.948 550.327 308.031 553.812C303.29 571.84 309.868 589.872 316.906 606.281C318.506 610.01 320.182 613.719 321.875 617.406C325.158 624.555 328.608 631.62 332.062 638.688C332.675 639.942 333.263 641.214 333.875 642.469C332.049 643.589 330.25 644.756 328.594 646.094C323.838 649.936 320.258 655.151 317.031 660.344C314.874 663.816 313.792 667.855 312.656 671.781C311.901 674.392 311.639 677.138 311.375 679.844C311.187 681.767 311.234 683.694 311.281 685.625C311.48 693.807 314.206 701.695 317.188 709.219C318.416 712.318 319.732 715.368 320.875 718.5C320.953 718.837 321.039 719.15 321.125 719.531C321.374 720.634 321.622 721.735 321.844 722.844C322.783 727.532 323.131 732.338 324.344 736.969C324.763 738.568 325.193 740.183 325.719 741.75C326.702 744.685 327.826 747.198 329.25 749.938C331.592 754.445 334.71 758.532 338.188 762.219C340.411 764.576 342.845 766.736 345.219 768.938C347.564 771.112 349.861 773.336 352.125 775.594C353.375 776.84 354.779 777.795 356.125 778.875C358.886 784.439 361.532 790.061 364.344 795.594C374.648 815.871 385.336 835.951 396.25 855.906C399.875 862.534 403.516 869.148 407.188 875.75C410.019 880.842 412.901 885.897 415.656 891.031C423.353 905.373 430.231 920.145 437.719 934.594C441.018 940.961 444.418 947.287 448 953.5C449.021 955.271 450.072 957.03 451.125 958.781C451.776 959.865 452.435 960.921 453.094 962C455.795 966.835 458.265 971.795 461.406 976.375C465.806 982.789 471.21 988.558 477.812 992.75C479.123 993.582 480.429 994.39 481.812 995.094C483.535 995.97 485.284 996.822 487.094 997.5C489.144 998.268 491.241 998.951 493.375 999.438C495.846 1000 498.346 1000.45 500.875 1000.62C503.832 1000.83 506.833 1000.86 509.781 1000.56C512.761 1000.26 515.717 999.677 518.594 998.844C521.445 998.018 524.248 996.915 526.906 995.594C529.49 994.309 531.912 992.753 534.25 991.062C535.766 989.967 537.135 988.689 538.5 987.406C539.014 987.486 539.515 987.655 540.031 987.719C542.651 988.042 545.3 988.154 547.938 988.062C550.569 987.971 553.192 987.633 555.781 987.156C558.047 986.739 560.282 986.102 562.469 985.375C564.417 984.727 566.301 983.943 568.156 983.062C569.848 982.26 571.499 981.326 573.094 980.344C574.578 979.429 576.006 978.455 577.375 977.375C579.076 976.034 580.75 974.626 582.281 973.094C583.926 971.447 585.475 969.679 586.906 967.844C588.164 966.231 589.288 964.533 590.344 962.781C591.296 961.201 592.128 959.548 592.906 957.875C593.63 956.32 594.267 954.709 594.844 953.094C600.85 936.271 597.399 918.192 591.938 901.344C593.982 901.39 596.021 901.363 598.062 901.188C602.573 900.801 607.056 899.895 611.344 898.438C612.882 897.915 614.421 897.346 615.906 896.688C617.644 895.918 619.348 895.096 621 894.156C622.745 893.164 624.472 892.09 626.094 890.906C627.846 889.627 629.545 888.267 631.125 886.781C631.604 886.331 632.004 885.81 632.469 885.344C634.417 896.865 637.391 908.166 642.531 918.688C644.94 923.617 647.856 928.322 651.219 932.656C666.429 952.261 689.163 962.759 712.969 967.625C738.134 972.769 764.82 973.597 788.688 962.781C792.789 960.923 796.764 958.78 800.531 956.312C805.667 952.949 810.413 949.032 814.719 944.656C819.872 939.419 824.348 933.506 828.094 927.188C833.495 918.074 837.346 908.123 839.969 897.875C845.078 877.91 845.632 857.154 845.656 836.656C845.673 822.576 845.677 808.486 845.688 794.406C845.688 793.521 845.718 792.635 845.719 791.75C851.105 792.364 856.628 792.32 862.219 791.094C889.486 785.115 906.76 758.174 900.781 730.906C895.116 705.096 890.58 679.034 887.781 652.75C886.967 645.105 886.309 637.452 885.781 629.781C885.296 622.726 884.993 615.646 884.469 608.594C883.802 599.626 883.057 590.683 882.344 581.719C881.834 575.319 881.326 568.776 881.062 562.438C880.204 541.813 879.48 521.197 878.156 500.594C877.309 487.408 876.272 474.196 874.531 461.094C872.647 446.913 870.027 432.053 861.875 419.969C860.968 418.624 860.028 417.286 859 416.031C857.671 414.409 856.32 412.802 854.812 411.344C853.008 409.598 851.135 407.9 849.094 406.438C846.573 404.631 843.964 402.879 841.156 401.562C837.654 399.921 834.015 398.483 830.25 397.594C826.338 396.67 822.236 395.467 818.281 396.188C808.417 397.986 798.51 400.568 789.531 405.031C784.639 407.463 781.329 412.272 777.688 416.344C775.9 418.342 774.683 420.802 773.344 423.125C772.542 424.517 771.929 425.998 771.281 427.469C770.255 429.8 769.469 432.268 768.781 434.719C767.063 440.845 766.136 447.183 765.219 453.469C763.967 462.045 762.909 470.645 761.875 479.25C759.596 498.21 757.585 517.223 755.625 536.219C753.281 558.93 751.11 581.653 749.594 604.438C747.076 642.269 745.954 680.157 745.375 718.062C744.836 753.38 744.888 788.71 744.906 824.031C744.912 835.664 745.161 847.356 744.344 858.969C744.073 862.812 743.684 866.654 742.938 870.438C741.977 870.326 741.027 870.212 740.094 870.094C737.304 869.741 734.425 869.255 731.625 868.594C730.003 859.513 729.74 850.188 729.25 841C728.553 827.924 727.77 814.792 725.312 801.906C724.129 795.703 722.507 789.589 720.844 783.5C718.983 776.686 716.998 769.924 714.875 763.188C706.773 737.479 696.744 712.483 686.219 687.688C678.668 669.899 670.578 652.34 662.719 634.688C659.899 628.355 657.137 622.001 654.344 615.656C645.398 592.783 636.233 570.018 627.344 547.125C623.632 537.566 619.953 527.985 616.375 518.375C614.51 513.366 612.508 508.371 610.875 503.281C608.704 496.515 606.876 489.635 604.781 482.844C601.098 470.901 596.965 459.064 591.625 447.75C581.415 426.117 566.186 406.191 543.125 397.406C539.324 395.958 535.404 394.847 531.406 394.094C528.316 393.511 525.173 393.143 522.031 393C520.934 392.95 519.847 392.881 518.75 392.938Z" fill="#c29387" stroke="none"/>
</g>
<g opacity="1" vectornator:layerName="Curve 3">
<path d="M687.236 972.393C681.694 976.549 677.361 986.419 670.611 984.861C663.662 983.257 654.106 969.828 660.221 966.158C669.307 960.707 681.002 970.315 691.392 972.393C722.549 978.624 751.039 982.783 782.827 982.783C791.832 982.783 800.846 983.192 809.842 982.783C816.108 982.498 834.817 980.705 828.544 980.705C745.13 980.705 680.539 950.765 602.035 924.597C574.86 915.539 543.514 909.39 514.757 912.129C508.399 912.734 494.035 910.226 496.054 916.285C498.618 923.977 511.367 921.633 518.913 924.597C530.766 929.254 542.535 934.127 554.24 939.144C637.8 974.955 706.952 974.471 795.295 974.471C801.568 974.471 782.831 975.892 776.593 976.549C769.669 977.278 762.747 979.23 755.812 978.627C741.9 977.417 723.694 970.692 710.095 966.158C662.48 950.287 604.662 925.847 554.24 947.456C546.539 950.756 522.458 967.014 523.069 978.627C523.887 994.167 553.569 1010.58 562.552 1016.03C612.085 1046.11 665.258 1055.52 722.563 1055.52C733.515 1055.52 756.149 1065.46 749.578 1074.22C743.333 1082.54 698.318 1080.97 693.47 1080.45C645.597 1075.32 591.218 1057.07 548.006 1036.81C506.421 1017.32 447.882 1004.76 412.932 974.471C355.289 924.514 305.929 725.528 302.795 650.293C300.471 594.529 315.457 534.67 346.434 488.204C348.82 484.625 379.498 435.877 390.073 442.487C397.062 446.855 382.615 501.784 381.761 506.907C371.573 568.036 367.45 634.844 379.683 696.01C396.521 780.201 441.698 883.307 508.523 941.222C533.748 963.084 564.845 979.307 591.645 999.407" fill="#3f3a3a" fill-rule="nonzero" stroke="none"/>
<path d="M386.875 391.594C384.563 391.632 382.263 391.809 379.969 392.125C364.555 394.25 351.289 402.895 340.406 413.625C335.122 418.835 330.313 424.523 325.719 430.344C319.358 438.403 313.47 446.811 307.812 455.375C304.383 460.566 300.96 465.796 297.75 471.125C292.636 479.616 287.984 488.381 283.75 497.344C264.587 537.91 254.152 582.665 252.625 627.469C252.275 637.743 252.375 648.052 253.031 658.312C253.913 672.103 255.65 685.816 257.75 699.469C263.741 738.409 272.649 776.966 283.344 814.875C293.556 851.075 305.525 886.952 320.75 921.375C328.959 939.934 338.16 958.155 349.281 975.156C358.123 988.674 368.228 1001.54 380.5 1012.12C413.834 1040.87 456.514 1054.65 497.125 1069.56C504.969 1072.44 512.785 1075.37 520.469 1078.66C524.68 1080.46 528.828 1082.45 533 1084.34C538.566 1086.87 544.179 1089.26 549.812 1091.62C579.213 1103.98 609.701 1114.08 640.781 1121.25C651.239 1123.66 661.795 1125.73 672.406 1127.34C678.299 1128.24 684.212 1129.1 690.156 1129.56C695.267 1129.96 700.438 1130.05 705.562 1130.09C715.483 1130.17 725.408 1129.88 735.281 1128.88C743.046 1128.08 750.826 1126.86 758.281 1124.5C770.605 1120.6 781.71 1113.51 789.406 1102.97C790.268 1101.79 791.098 1100.6 791.844 1099.34C792.842 1097.66 793.788 1095.95 794.625 1094.19C795.468 1092.41 796.231 1090.58 796.875 1088.72C797.539 1086.8 798.09 1084.83 798.531 1082.84C798.997 1080.75 799.367 1078.63 799.594 1076.5C799.809 1074.48 799.891 1072.47 799.875 1070.44C799.859 1068.47 799.732 1066.48 799.5 1064.53C799.27 1062.59 798.896 1060.68 798.469 1058.78C798.084 1057.07 797.611 1055.38 797.062 1053.72C796.05 1050.65 794.763 1047.79 793.25 1044.94C790.415 1039.59 786.643 1034.83 782.344 1030.59C783.845 1030.61 785.342 1030.67 786.844 1030.69C793.335 1030.75 799.821 1030.94 806.312 1030.81C810.951 1030.72 815.595 1030.44 820.219 1030.06C824.001 1029.75 827.761 1029.4 831.531 1028.97C834.63 1028.61 837.755 1028.24 840.781 1027.47C841.855 1027.19 842.94 1026.89 844 1026.56C844.863 1026.3 845.762 1026.1 846.562 1025.69C850.796 1023.48 854.893 1021.04 859.062 1018.72C859.338 1018.57 859.569 1018.36 859.812 1018.16C866.3 1012.82 871.458 1005.98 874.469 998.094C875.057 996.552 875.604 994.969 876.031 993.375C876.491 991.659 876.857 989.943 877.125 988.188C877.407 986.34 877.589 984.462 877.656 982.594C877.725 980.679 877.689 978.753 877.531 976.844C877.374 974.941 877.099 973.059 876.719 971.188C876.004 967.669 874.769 964.246 873.375 960.938C873.055 960.177 872.674 959.461 872.312 958.719C872.31 958.715 872.317 958.685 872.312 958.688C871.587 957.431 870.949 956.132 870.125 954.938C868.694 952.863 867.18 950.812 865.531 948.906C864.205 947.373 862.732 945.974 861.219 944.625C860.012 943.549 858.719 942.57 857.406 941.625C855.535 940.278 853.432 939.084 851.375 938.031C849.834 937.242 848.643 936.728 847.062 936.094C846.762 935.973 846.47 935.832 846.156 935.75C842.492 934.798 838.856 933.578 835.094 933.156C830.7 932.664 826.256 932.818 821.844 932.719C821.27 932.706 820.699 932.641 820.125 932.625C819.223 932.123 818.397 931.503 817.5 931.062C815.407 930.034 813.213 929.191 811 928.469C810.733 928.382 810.463 928.308 810.188 928.25C807.681 927.72 805.204 927.138 802.688 926.656C802.075 926.539 801.434 926.494 800.812 926.438C795.807 925.986 790.738 926.215 785.719 926.219C779.01 926.224 772.303 926.213 765.594 926.188C758.984 924.846 752.378 923.388 745.844 921.719C712.582 913.224 680.356 901.16 648.031 889.719C626.983 882.269 605.898 874.708 584.062 869.875C560.47 864.654 536.071 862.146 511.938 864.219C511.854 864.217 511.771 864.22 511.688 864.219C509.881 864.182 508.087 864.201 506.281 864.188C504.852 862.28 503.293 860.469 501.906 858.531C489.467 841.155 478.726 822.594 469.281 803.438C457.27 779.075 447.385 753.664 439.562 727.656C434.814 711.87 430.749 695.801 427.875 679.562C425.881 668.296 424.508 656.939 423.656 645.531C421.316 614.205 422.733 582.648 426.281 551.469C427.112 544.168 428.093 536.864 429.156 529.594C429.819 525.058 430.579 520.56 431.281 516.031C432.34 511.207 433.515 506.414 434.594 501.594C436.875 491.395 438.977 481.124 440.5 470.781C441.852 461.601 442.82 452.216 442 442.938C441.177 433.624 438.469 424.469 433.438 416.531C432.556 415.14 431.634 413.77 430.625 412.469C429.487 411 428.29 409.556 427 408.219C425.495 406.658 423.929 405.153 422.25 403.781C420.478 402.334 418.576 401.025 416.656 399.781C415.232 398.859 413.739 398.066 412.219 397.312C410.6 396.51 408.937 395.772 407.25 395.125C400.747 392.632 393.811 391.48 386.875 391.594ZM826.375 1028.53C827.002 1028.54 827.622 1028.59 828.25 1028.59C828.024 1028.59 827.789 1028.6 827.562 1028.59C827.165 1028.58 826.772 1028.56 826.375 1028.53Z" fill="#c29387" stroke="none"/>
</g>
<g opacity="1" vectornator:layerName="Curve 4">
<path d="M325.653 614.966C264.642 574.292 322.272 454.814 358.902 411.316C370.5 397.543 391.841 373.646 412.932 375.989C452.894 380.429 518.482 502.793 481.508 531.844C432.243 570.552 387.272 460.684 412.932 419.628" fill="#c29387" fill-rule="nonzero" stroke="none"/>
<path d="M407.281 326.906C404.849 327 402.445 327.213 400.031 327.531C365.889 332.031 339.29 357.928 318.781 383.75C309.017 396.045 300.456 409.338 292.688 422.969C286.856 433.201 281.513 443.708 276.656 454.438C273.051 462.402 269.718 470.476 266.719 478.688C264.376 485.102 262.217 491.598 260.312 498.156C250.162 533.107 245.99 572.229 260 606.75C261.889 611.406 264.106 615.965 266.625 620.312C269.896 625.959 273.692 631.29 277.969 636.219C284.056 643.234 291.079 649.342 298.75 654.562C320.611 669.415 350.398 663.705 365.25 641.844C380.102 619.983 374.392 590.227 352.531 575.375C351.637 574.77 350.858 574.196 350.188 573.344C348.091 570.679 347.506 566.819 347.156 563.562C346.1 553.725 347.763 543.608 350.062 534.062C352.998 521.876 357.35 510.043 362.438 498.562C365.271 508.012 368.68 517.308 373 526.094C377.62 535.488 383.118 544.478 389.625 552.688C406.105 573.479 429.293 588.77 456.375 590.156C461.822 590.435 467.3 590.138 472.688 589.281C479.273 588.233 485.641 586.336 491.781 583.75C503.148 578.964 514.133 571.356 522.281 562.125C528.683 554.872 533.581 546.387 536.906 537.312C542.338 522.492 543.396 506.45 541.781 490.844C539.591 469.682 532.783 449.071 524 429.781C518.32 417.308 511.676 405.259 504.188 393.781C497.665 383.784 490.497 374.182 482.5 365.312C469.037 350.381 452.825 336.936 433.469 330.594C427.36 328.592 421.013 327.344 414.594 326.969C412.163 326.827 409.714 326.813 407.281 326.906Z" fill="#c29387" stroke="none"/>
</g>
<g opacity="1" vectornator:layerName="Curve 5">
<path d="M336.044 496.516C331.195 500.673 327.477 511.227 321.497 508.985C313.287 505.906 327.466 442.61 329.809 434.175C345.145 378.967 403.814 263.517 479.43 299.101C553.977 334.181 578.578 432.503 599.957 502.751C613.728 547.996 636.884 590.433 649.831 635.747C668.542 701.235 681.799 767.609 689.314 835.241" fill="#c29387" fill-rule="nonzero" stroke="none"/>
<path d="M451.938 244.031C448.244 244.005 444.558 244.179 440.875 244.531C431.424 245.435 422.121 247.581 413.188 250.781C400.499 255.327 388.631 262.011 377.844 270.062C355.967 286.392 338.443 308.061 324 331.062C314.155 346.742 305.643 363.24 298.344 380.25C292.901 392.934 288.062 405.917 284.25 419.188C281.498 428.768 279.52 438.604 277.594 448.375C275.01 461.48 272.687 474.709 271.594 488.031C270.752 498.291 270.684 508.809 273.438 518.812C274.947 524.297 277.23 529.641 280.406 534.375C281.362 535.799 282.379 537.206 283.469 538.531C284.657 539.976 285.907 541.355 287.25 542.656C288.756 544.116 290.32 545.526 292 546.781C293.929 548.223 295.929 549.576 298.031 550.75C300.036 551.87 302.161 552.774 304.281 553.656C305.614 554.21 306.99 554.624 308.375 555.031C309.729 555.43 311.118 555.775 312.5 556.062C316.635 556.924 320.964 557.355 325.188 557.125C327.151 557.018 329.12 556.865 331.062 556.562C333.073 556.249 335.077 555.847 337.031 555.281C339.426 554.588 341.797 553.751 344.094 552.781C346.024 551.966 347.868 550.977 349.688 549.938C351.253 549.043 352.75 548.046 354.219 547C357.487 544.672 360.46 541.934 363.188 539C366.113 535.853 368.63 532.362 371.125 528.875C371.008 529.019 370.872 529.172 370.75 529.312C370.516 529.583 370.308 529.834 370.062 530.094C369.507 530.683 368.922 531.246 368.344 531.812C387.592 514.205 389.055 484.551 371.938 465.031C372.75 461.016 373.623 457.026 374.531 453.031C374.862 451.578 375.21 450.104 375.562 448.656C375.669 448.219 375.763 447.811 375.875 447.375C375.892 447.308 375.92 447.225 375.938 447.156C375.923 447.208 375.947 447.077 375.969 447C375.973 446.983 375.973 446.952 375.969 446.969C376.091 446.536 376.219 446.088 376.344 445.656C376.612 444.723 376.902 443.803 377.188 442.875C377.739 441.082 378.305 439.308 378.906 437.531C380.9 431.643 383.158 425.813 385.594 420.094C393.051 402.586 402.175 385.594 413.562 370.312C420.394 361.146 428.362 351.939 438 345.625C441.943 343.042 446.741 340.449 451.625 340.844C454.411 341.069 457.018 342.187 459.5 343.406C462.12 344.693 464.659 346.126 467.125 347.688C486.693 360.082 500.394 379.968 510.906 400.188C518.511 414.815 524.671 430.155 530.156 445.688C537.95 467.756 544.314 490.291 550.969 512.719C553.931 522.7 557.128 532.589 560.688 542.375C565.831 556.518 571.55 570.432 577.281 584.344C579.512 589.758 581.702 595.2 583.906 600.625C585.126 603.627 586.392 606.604 587.562 609.625C588.73 612.636 589.832 615.696 590.969 618.719C592.01 621.487 593.05 624.233 594.094 627C594.441 627.922 594.923 628.971 595.219 629.906C597.377 636.734 599.617 643.527 601.719 650.375C603.626 656.591 605.203 662.965 606.875 669.25C610.364 682.368 613.647 695.521 616.688 708.75C623.659 739.082 629.441 769.703 633.938 800.5C635.904 813.967 637.562 827.478 639.094 841C642.27 868.734 667.329 888.645 695.062 885.469C722.796 882.293 742.707 857.234 739.531 829.5C737.841 814.896 735.974 800.293 733.812 785.75C728.406 749.368 721.395 713.235 712.812 677.469C709.9 665.333 706.8 653.24 703.562 641.188C701.76 634.478 699.958 627.742 697.938 621.094C696.581 616.631 695.085 612.222 693.656 607.781C692.467 604.085 691.351 600.351 690.062 596.688C688.77 593.015 687.303 589.384 685.906 585.75C684.236 581.404 682.599 577.043 680.875 572.719C679.146 568.382 677.291 564.093 675.5 559.781C667.654 540.891 659.446 522.123 652.5 502.875C649.05 493.315 646.148 483.594 643.188 473.875C639.847 462.909 636.52 451.941 633 441.031C621.393 405.056 607.819 369.303 587.875 337.031C569.25 306.894 544.935 280.32 514.062 262.469C504.741 257.079 494.948 252.403 484.656 249.188C474.069 245.88 463.019 244.11 451.938 244.031Z" fill="#c29387" stroke="none"/>
</g>
<g opacity="1" vectornator:layerName="Group 1">
<g opacity="1" vectornator:layerName="Curve 6">
<path d="M254.999 538.078C254.999 717.796 310.26 905.048 439.947 1034.73C482.073 1076.86 518.107 1113.31 579.177 1126.17C631.887 1137.27 692.037 1114.43 745.422 1111.62C805.672 1108.45 868.398 1101.23 928.291 1101.23C955.019 1101.23 978.625 1110.42 1005.18 1107.47" fill="#c29387" fill-rule="nonzero" stroke="none"/>
<path d="M254.844 490.219C228.415 490.298 207.077 511.79 207.156 538.219C207.211 559.992 207.891 581.748 209.438 603.469C216.496 702.621 239.722 801.021 281.969 891.188C299.642 928.907 320.703 965.068 345.188 998.781C359.102 1017.94 374.108 1036.31 390.156 1053.72C400.573 1065.02 411.431 1075.9 422.375 1086.69C439.435 1103.5 457.068 1119.83 476.594 1133.78C496.552 1148.04 518.364 1159.59 541.625 1167.44C556.37 1172.42 571.644 1176.13 587.125 1177.84C604.264 1179.74 621.577 1179.33 638.719 1177.69C658.456 1175.8 677.995 1172.25 697.5 1168.78C712.512 1166.11 727.567 1163.41 742.781 1162.19C751.018 1161.53 759.315 1161.24 767.562 1160.72C781.74 1159.82 795.895 1158.77 810.062 1157.72C849.397 1154.81 888.782 1151.66 928.25 1151.69C933.996 1151.69 939.729 1152.42 945.406 1153.25C952.366 1154.26 959.313 1155.48 966.281 1156.44C974.534 1157.57 982.855 1158.4 991.188 1158.56C997.59 1158.69 1003.97 1158.39 1010.34 1157.75C1038.11 1154.9 1058.32 1130.08 1055.47 1102.31C1052.62 1074.54 1027.8 1054.34 1000.03 1057.19C994.174 1057.81 988.33 1057.38 982.5 1056.66C976.658 1055.93 970.85 1054.95 965.031 1054.06C956.655 1052.78 948.241 1051.67 939.781 1051.12C934.621 1050.8 929.481 1050.75 924.312 1050.78C883.008 1051.01 841.819 1054.36 800.656 1057.47C786.251 1058.56 771.825 1059.65 757.406 1060.56C749.137 1061.08 740.847 1061.39 732.594 1062.12C707.21 1064.38 682.294 1069.8 657.219 1074.12C646.396 1075.99 635.543 1077.7 624.594 1078.62C615.728 1079.37 606.739 1079.61 597.875 1078.69C589.469 1077.82 581.173 1075.73 573.156 1073.09C562.466 1069.58 552.268 1064.73 542.688 1058.84C524.18 1047.47 508.034 1032.6 492.5 1017.53C478.43 1003.89 464.489 990.123 451.531 975.406C438.673 960.802 426.703 945.459 415.531 929.531C384.799 885.714 361.028 837.189 343.406 786.719C322.027 725.484 309.634 661.267 304.969 596.625C303.558 577.086 302.912 557.525 302.844 537.938C302.764 511.509 281.273 490.139 254.844 490.219Z" fill="#c29387" stroke="none"/>
</g>
</g>
<g opacity="1" vectornator:layerName="Curve 7">
<path d="M807.764 1115.78C801.529 1118.55 795.634 1122.27 789.061 1124.09C783.017 1125.77 770.358 1119.9 770.358 1126.17C770.358 1136.82 880.183 1139.31 892.964 1138.64C893.63 1138.6 930.369 1135.12 930.369 1132.4C930.369 1120.4 860.518 1142.2 849.325 1142.79C843.099 1143.12 826.214 1147.2 830.622 1142.79C841.093 1132.32 859.856 1137.91 874.262 1134.48C924.828 1122.44 993.864 1130.15 1038.43 1105.39" fill="#c29387" fill-rule="nonzero" stroke="none"/>
<path d="M1043.16 1055.06C1033.46 1054.14 1023.41 1056.02 1014.22 1061.03C1003.96 1066.69 992.277 1069.29 980.812 1071.22C963.709 1074.1 946.333 1075.25 929.062 1076.66C914.935 1077.8 900.802 1079.03 886.781 1081.16C881.426 1081.97 876.085 1082.9 870.781 1084C868.741 1084.42 866.716 1084.9 864.688 1085.38C864.297 1085.47 863.92 1085.53 863.531 1085.62C863.472 1085.64 863.382 1085.67 863.344 1085.69C860.996 1085.97 858.607 1085.92 856.25 1085.97C852.741 1086.04 849.22 1086.12 845.719 1086.38C845.614 1086.38 845.511 1086.4 845.406 1086.41C832.091 1069.31 808.439 1062.85 787.875 1072.25C785.541 1073.32 783.234 1074.48 780.938 1075.62C780.06 1075.54 779.192 1075.45 778.312 1075.41C776.018 1075.28 773.33 1075.25 771.062 1075.41C767.67 1075.64 764.296 1076.1 761 1076.94C756.144 1078.17 751.428 1080.01 747.125 1082.59C745.558 1083.53 744.016 1084.55 742.562 1085.66C740.919 1086.91 739.33 1088.22 737.844 1089.66C736.346 1091.1 734.93 1092.66 733.625 1094.28C732.294 1095.94 731.079 1097.66 729.969 1099.47C728.825 1101.33 727.812 1103.29 726.906 1105.28C726.079 1107.1 725.384 1109 724.781 1110.91C724.219 1112.68 723.767 1114.48 723.406 1116.31C723.063 1118.06 722.804 1119.82 722.656 1121.59C722.495 1123.52 722.355 1125.45 722.469 1127.38C722.648 1130.41 722.872 1133.47 723.531 1136.44C724.26 1139.72 725.331 1142.93 726.625 1146.03C727.704 1148.61 729.121 1151.04 730.625 1153.41C731.89 1155.39 733.372 1157.25 734.906 1159.03C736.23 1160.57 737.695 1162 739.188 1163.38C740.372 1164.47 741.654 1165.46 742.938 1166.44C752.239 1173.5 763.627 1176.91 774.938 1179.09C781.196 1180.3 787.514 1181.17 793.844 1181.91C795.215 1182.07 796.596 1182.13 797.969 1182.28C799.387 1183.45 800.857 1184.53 802.344 1185.59C804.599 1187.21 807.125 1188.48 809.625 1189.69C811.566 1190.62 813.612 1191.32 815.656 1192C817.133 1192.49 818.638 1192.84 820.156 1193.19C825.741 1194.47 831.583 1194.69 837.281 1194.28C841.34 1193.99 845.36 1193.36 849.375 1192.72C850.346 1192.56 851.309 1192.4 852.281 1192.25C852.514 1192.21 852.736 1192.19 852.969 1192.16C852.99 1192.15 853.032 1192.15 853.031 1192.12C853.271 1192.11 853.51 1192.11 853.75 1192.09C854.289 1192.05 854.805 1192 855.344 1191.94C856.176 1191.85 857.167 1191.71 858 1191.59C862.069 1191 866.092 1190.09 870.094 1189.16C873.104 1188.45 876.093 1187.68 879.094 1186.94C879.427 1186.94 879.76 1186.96 880.094 1186.97C884.899 1187.05 889.727 1187.14 894.531 1186.97C899.531 1186.79 904.53 1186.18 909.5 1185.66C916.079 1184.96 922.691 1184.22 929.219 1183.12C936.862 1181.85 944.634 1180.22 951.562 1176.59C952.136 1176.29 952.679 1175.93 953.25 1175.62C984.813 1173.09 1016.38 1169.69 1045.91 1157.69C1051.64 1155.36 1057.19 1152.7 1062.62 1149.75C1087.13 1136.38 1096.18 1105.69 1082.81 1081.19C1074.46 1065.87 1059.31 1056.6 1043.16 1055.06ZM852.938 1192.12C852.855 1192.13 852.642 1192.17 852.438 1192.19C852.414 1192.19 852.508 1192.16 852.531 1192.16C852.667 1192.15 852.802 1192.13 852.938 1192.12Z" fill="#c29387" stroke="none"/>
</g>
<g opacity="1" vectornator:layerName="Curve 8">
<path d="M909.589 1067.98C892.598 983.029 874.438 905.267 870.105 818.616C869.028 797.077 865.004 775.719 863.871 754.196C863.544 747.971 863.871 741.728 863.871 735.494C863.871 729.259 858.295 714.003 863.871 716.791C864.424 717.067 880.066 797.122 880.496 799.914C891.565 871.867 890.553 948.536 913.745 1018.11C918.529 1032.46 912.167 1056.13 926.213 1061.75C950.959 1071.65 945.119 1004.09 944.916 999.407C943.69 971.221 928.666 949.704 924.135 922.519C918.381 887.996 915.039 853.134 909.589 818.616C886.695 673.624 899.198 516.323 899.198 369.755" fill="#c29387" fill-rule="nonzero" stroke="none"/>
<path d="M899.281 319.219C871.366 319.173 848.702 341.772 848.656 369.688C848.573 470.007 843.339 570.713 846.531 671.062C845.489 671.423 844.449 671.754 843.438 672.188C840.276 673.541 837.224 675.247 834.406 677.219C831.636 679.157 829.102 681.446 826.75 683.875C824.788 685.902 823.112 688.195 821.531 690.531C820.21 692.484 819.086 694.563 818.062 696.688C817.189 698.5 816.499 700.41 815.844 702.312C814.915 705.008 814.292 707.809 813.844 710.625C812.792 717.235 813.18 723.954 814.25 730.531C814.587 732.604 814.99 734.66 815.406 736.719C815.534 737.349 815.615 737.757 815.719 738.281C815.691 740.875 815.609 743.468 815.594 746.062C815.538 755.364 816.251 764.659 817.219 773.906C818.551 786.638 820.355 799.312 821.5 812.062C821.984 817.448 822.231 822.854 822.562 828.25C823.027 835.797 823.558 843.342 824.219 850.875C826.886 881.307 830.986 911.572 836.094 941.688C843.802 987.142 853.582 1032.22 862.688 1077.41C867.898 1103.32 893.121 1120.12 919.031 1114.91C922.333 1114.24 925.459 1113.21 928.438 1111.94C928.532 1111.94 928.624 1111.97 928.719 1111.97C935.61 1112.22 942.509 1111.25 949.062 1109.09C952.917 1107.83 956.62 1106.13 960.125 1104.09C974.46 1095.75 984.044 1081.62 989.062 1066.06C994.298 1049.84 995.247 1032.35 995.062 1015.41C995.018 1011.31 994.887 1007.21 994.688 1003.12C994.592 1001.16 994.401 998.708 994.344 996.969C994.171 991.717 993.571 986.468 992.75 981.281C990.706 968.372 986.828 955.893 982.406 943.625C980.656 938.768 978.847 933.921 977.188 929.031C975.754 924.807 974.379 920.544 973.531 916.156C972.957 913.183 972.557 910.179 972.094 907.188C971.3 902.063 970.555 896.918 969.844 891.781C967.559 875.274 965.595 858.738 963.406 842.219C962.817 837.772 962.279 833.317 961.656 828.875C960.008 817.116 958.082 805.393 956.5 793.625C954.545 779.085 952.955 764.488 951.656 749.875C945.214 677.389 945.582 604.504 947 531.812C948.053 477.823 949.619 423.847 949.75 369.844C949.795 341.929 927.196 319.264 899.281 319.219Z" fill="#c29387" stroke="none"/>
</g>
<g opacity="1" vectornator:layerName="Curve 9">
<path d="M828.544 984.861C814.871 923.332 832.7 859.901 832.7 797.835" fill="#c29387" fill-rule="nonzero" stroke="none"/>
<path d="M832.969 747.281C805.054 747.127 782.31 769.648 782.156 797.562C782.163 811.138 781.293 824.629 780.219 838.156C779.136 851.786 777.975 865.425 777 879.062C775.835 895.358 775.065 911.66 775.125 928C775.155 936.296 775.346 944.565 775.906 952.844C776.862 966.96 778.741 980.95 781.719 994.781C787.205 1020.63 812.615 1037.17 838.469 1031.69C864.322 1026.2 880.83 1000.79 875.344 974.938C873.867 967.877 872.742 960.76 872.188 953.562C870.165 927.309 873.843 901.062 877.094 875.062C878.257 865.757 879.454 856.458 880.375 847.125C881.983 830.829 883.061 814.501 883.25 798.125C883.404 770.21 860.883 747.435 832.969 747.281Z" fill="#c29387" stroke="none"/>
</g>
<g opacity="1" vectornator:layerName="Curve 10">
<path d="M801.529 654.449C786.599 604.681 794.65 544.104 797.373 492.36C802.921 386.944 773.066 273.787 818.154 172.339" fill="#c29387" fill-rule="nonzero" stroke="none"/>
<path d="M818.75 121.781C799.054 121.552 780.224 132.908 771.844 152.094C764.886 168.126 759.168 184.625 754.844 201.562C746.392 234.665 743.043 268.896 742.688 303C742.441 326.685 743.536 350.363 744.938 374C746.87 406.592 749.453 439.173 749.375 471.844C749.312 498.218 746.74 524.544 745.531 550.875C744.168 580.57 744.176 610.612 749.156 640C750.746 649.383 752.904 658.646 755.562 667.781C762.92 693.166 789.459 707.764 814.844 700.406C840.228 693.049 854.857 666.509 847.5 641.125C840.869 618.147 840.184 593.975 840.938 570.219C841.536 551.336 843.08 532.495 844.438 513.656C845.41 500.165 846.357 486.683 846.656 473.156C847.68 426.918 843.94 380.769 843 334.562C842.694 319.501 842.81 304.452 843.594 289.406C844.693 268.302 847.197 247.202 852.531 226.719C855.581 215.01 859.602 203.636 864.469 192.562C875.642 166.981 863.956 137.205 838.375 126.031C831.98 123.238 825.315 121.858 818.75 121.781Z" fill="#c29387" stroke="none"/>
</g>
<g opacity="1" vectornator:layerName="Curve 11">
<path d="M845.169 384.301C845.169 308.678 918.346 247.002 909.589 168.183" fill="#c29387" fill-rule="nonzero" stroke="none"/>
<path d="M909.656 117.625C907.948 117.624 906.236 117.731 904.5 117.906C876.727 120.718 856.501 145.508 859.312 173.281C859.831 178.161 859.981 183.008 859.594 187.906C858.74 198.711 855.637 209.196 852.062 219.375C850.053 225.098 847.667 230.677 845.281 236.25C841.234 245.704 836.825 255.013 832.438 264.312C822.926 284.471 813.472 304.81 806.812 326.125C800.961 344.854 797.45 364.196 797.312 383.844C797.064 410.272 818.291 431.908 844.719 432.156C871.147 432.405 892.783 411.178 893.031 384.75C893.109 378.139 893.925 371.618 895.469 365.188C897.122 358.299 899.582 351.627 902.219 345.062C905.334 337.308 909.013 329.797 912.781 322.344C918.216 311.594 924.011 301.035 929.438 290.281C938.178 272.96 946.415 255.284 952.094 236.688C957.041 220.487 960.11 203.662 960.688 186.719C960.956 178.828 960.631 170.949 959.875 163.094C957.239 137.056 935.275 117.633 909.656 117.625Z" fill="#c29387" stroke="none"/>
</g>
<g opacity="1" vectornator:layerName="Curve 12">
<path d="M892.964 297.023C871.611 232.963 995.648 273.248 992.711 326.115C990.852 359.583 918.177 375.263 895.042 392.613" fill="#c29387" fill-rule="nonzero" stroke="none"/>
<path d="M911.188 216.188C902.321 216.536 893.456 218.126 885.156 221.312C878.829 223.741 872.841 227.037 867.5 231.219C862.736 234.949 858.471 239.335 854.938 244.25C852.649 247.433 850.694 250.813 849 254.344C843.111 266.616 841.559 280.622 843.312 294.031C844.104 300.083 845.552 306.014 847.438 311.812C852.511 327.431 864.88 338.635 879.531 342.938C874.561 345.63 869.704 348.546 865.125 351.875C842.622 368.394 837.794 400.028 854.312 422.531C870.831 445.034 902.435 449.863 924.938 433.344C926.037 432.506 928.074 431.478 929.562 430.719C931.93 429.51 934.331 428.382 936.75 427.281C944.459 423.774 952.296 420.51 960.031 417.062C984.124 406.324 1009.07 393.494 1025.59 372.25C1031.34 364.859 1035.89 356.553 1038.75 347.625C1041.11 340.263 1042.3 332.543 1042.28 324.812C1042.27 318.196 1041.48 311.621 1039.94 305.188C1031.07 268.257 999.321 241.687 965.656 227.344C958.919 224.473 951.991 222.048 944.906 220.188C933.933 217.306 922.546 215.741 911.188 216.188ZM944.219 328.75C944.342 328.962 944.559 329.137 944.594 329.344C944.608 329.428 944.345 329.065 944.344 329.062C944.284 328.954 944.261 328.84 944.219 328.75Z" fill="#c29387" stroke="none"/>
</g>
<g opacity="1" vectornator:layerName="Curve 13">
<path d="M919.979 375.989C919.979 422.852 909.662 468.695 905.432 515.219" fill="#c29387" fill-rule="nonzero" stroke="none"/>
<path d="M920.188 328.125C893.759 328.012 872.238 349.352 872.125 375.781C872.025 387.898 871.203 399.973 869.719 412C867.893 426.793 865.029 441.462 862.562 456.156C861.49 462.545 860.357 468.931 859.438 475.344C857.776 486.923 856.42 498.528 855.156 510.156C852.363 537.931 872.6 562.707 900.375 565.5C928.15 568.293 952.926 548.056 955.719 520.281C956.063 516.554 956.386 512.819 956.75 509.094C957.426 502.182 958.351 495.303 959.156 488.406C959.872 482.276 960.526 476.133 961.219 470C962.976 454.442 964.43 438.858 965.656 423.25C966.887 407.586 967.839 391.906 967.844 376.188C967.956 349.759 946.616 328.238 920.188 328.125Z" fill="#c29387" stroke="none"/>
</g>
</g>
<g id="Layer-4" vectornator:layerName="Layer 4">
<g opacity="1" vectornator:layerName="Curve 1">
<path d="M957.384 473.658C938.037 517.188 951.15 558.914 951.15 604.576C951.15 688.558 936.432 852.421 980.243 922.519" fill="#dbc8c3" fill-rule="nonzero" stroke="none"/>
<path d="M957.531 450.375C948.466 450.318 939.84 455.618 936.031 464.469C932.888 471.761 930.227 479.202 928.281 486.906C925.186 499.162 923.806 511.783 923.562 524.406C923.046 551.246 927.641 577.866 927.688 604.688C927.704 614.018 927.418 623.361 927.156 632.688C926.754 647.029 926.248 661.347 925.812 675.688C924.902 705.649 924.261 735.651 924.938 765.625C925.355 784.119 926.204 802.613 927.969 821.031C929.819 840.343 932.573 859.651 937.094 878.531C941.849 898.391 948.614 917.799 959.25 935.312C966.308 946.903 981.441 950.558 993.031 943.5C1004.62 936.442 1008.28 921.34 1001.22 909.75C993.206 896.628 988.352 881.942 984.75 867.062C980.031 847.565 977.52 827.557 975.812 807.594C972.096 764.156 972.556 720.454 973.438 676.906C973.926 652.767 974.799 628.616 974.625 604.469C974.52 589.853 973.248 575.3 971.969 560.75C970.34 542.213 968.66 523.296 972 504.844C973.377 497.239 975.703 489.936 978.75 482.844C983.829 471.042 978.395 457.36 966.594 452.281C963.643 451.012 960.553 450.394 957.531 450.375Z" fill="#dbc8c3" stroke="none"/>
</g>
<g opacity="1" vectornator:layerName="Curve 2">
<path d="M951.15 743.806C941.727 659.003 932.999 573.566 940.76 488.204" fill="#dbc8c3" fill-rule="nonzero" stroke="none"/>
<path d="M942.906 463.719C929.387 462.54 917.46 472.543 916.281 486.062C913.64 517.132 912.874 548.27 913.781 579.438C914.651 609.304 917.011 639.108 919.844 668.844C922.308 694.706 925.162 720.523 928.031 746.344C929.437 759.115 940.917 768.343 953.688 766.938C966.458 765.532 975.686 754.021 974.281 741.25C971.599 716.634 968.942 692.018 966.844 667.344C964.621 641.209 963.133 615.003 962.5 588.781C961.707 555.931 962.326 523.083 965.25 490.344C966.428 476.825 956.425 464.897 942.906 463.719Z" fill="#dbc8c3" stroke="none"/>
</g>
<g opacity="1" vectornator:layerName="Curve 3">
<path d="M955.306 831.084C958.791 862.454 964.289 893.227 967.774 924.597" fill="#dbc8c3" fill-rule="nonzero" stroke="none"/>
<path d="M957.344 807.906C955.804 807.773 954.22 807.784 952.625 807.969C939.863 809.45 930.706 821.019 932.188 833.781C935.726 865.06 939.792 896.258 943.375 927.531C944.998 941.004 957.246 950.623 970.719 949C984.192 947.377 993.779 935.129 992.156 921.656C990.821 911.09 989.47 900.553 987.812 890.031C985.981 878.405 983.834 866.818 982.031 855.188C980.651 846.281 979.471 837.355 978.406 828.406C977.11 817.239 968.124 808.839 957.344 807.906Z" fill="#dbc8c3" stroke="none"/>
</g>
</g>
<g id="Untitled" vectornator:layerName="Untitled">
<path d="M895.795 266.112C903.628 267.625 910.603 273.058 913.985 280.284C917.368 287.509 917.074 296.345 913.218 303.33C910.926 307.481 905.721 308.981 901 309.415C894.627 310 888.011 309.308 882.275 306.472C876.538 303.635 871.783 298.47 870.339 292.235C868.212 283.046 873.82 273.246 881.987 268.526C884.159 267.27 886.521 266.299 889 265.908C891.25 265.552 893.559 265.681 895.795 266.112Z" fill="#3f3a3a" fill-rule="nonzero" opacity="1" stroke="none" vectornator:layerName="path"/>
<path d="M580.455 844.332C581.296 848.748 578.471 853.213 574.706 855.671C570.941 858.13 566.392 859.007 561.973 859.833C559.611 860.275 557.056 860.693 554.9 859.634C552.389 858.4 551.182 855.556 550.179 852.944C543.212 834.799 536.244 816.654 529.277 798.509C524.882 787.064 517.036 773.387 504.865 774.855C498.69 775.6 493.626 780.51 491.086 786.188C488.547 791.866 488.122 798.242 488.015 804.461C487.695 823.017 489.878 841.615 494.486 859.593C496.258 866.505 498.395 873.749 496.553 880.642C494.711 887.536 486.988 893.398 480.51 890.408C476.294 888.462 474.254 883.75 472.358 879.512C467.676 869.045 461.717 859.151 454.656 850.117C448.22 841.883 436.814 833.812 428.305 839.88C422.508 844.014 422.044 852.32 422.338 859.434C423.063 876.994 424.998 894.504 428.124 911.799C429.497 919.396 430.393 928.853 424.046 933.247C418.781 936.891 411.093 934.439 406.893 929.606C402.694 924.772 401.11 918.265 399.66 912.029C397.783 903.95 395.905 895.871 394.027 887.793C389.814 869.668 385.682 850.197 392.523 832.893C397.519 820.254 408.385 810.079 421.324 805.923C434.263 801.767 449.022 803.711 460.443 811.076C459.632 794.815 462.216 778.027 470.396 763.95C478.576 749.873 492.88 738.865 509.065 737.101C525.25 735.337 542.709 744.148 548.807 759.244C554.543 744.902 562.194 730.658 574.645 721.516C587.096 712.375 605.34 709.681 617.895 718.678C623.409 722.63 627.346 728.375 630.887 734.162C644.143 755.82 653.504 779.853 658.392 804.771C659.475 810.294 660.206 816.509 656.978 821.12C655.09 823.817 652.121 825.519 649.251 827.133C646.169 828.866 642.937 830.644 639.404 830.785C635.871 830.927 631.978 828.861 631.299 825.391C626.42 800.49 618.422 776.201 607.551 753.273C603.681 745.11 590.813 745.494 584.504 751.961C578.195 758.428 576.837 768.143 576.262 777.159C574.832 799.608 576.244 822.235 580.455 844.332Z" fill="#3f3a3a" fill-rule="nonzero" opacity="1" stroke="none" vectornator:layerName="path"/>
<path d="M360.229 489.056C372.254 486.342 385.616 490.752 393.662 500.092C405.999 475.999 424.553 451.31 451.362 447.582C461.274 446.204 473.574 449.673 476.098 459.356C476.839 462.199 480.999 459.34 482.07 456.604C488.891 439.177 501.982 423.777 519.239 416.538C536.496 409.299 557.89 411.234 572.139 423.366C586.27 435.398 591.507 454.707 594.875 472.958C598.661 493.472 601.028 514.249 601.954 535.089C602.156 539.637 602.266 544.334 600.612 548.575C596.755 558.467 582.46 562.322 574.152 555.709C566.739 549.81 565.557 539.179 565.121 529.715C563.974 504.778 563.478 478.121 549.231 457.624C545.051 451.61 538.989 445.988 531.667 445.854C519.929 445.641 512.969 458.736 509.7 470.012C499.161 506.365 497.924 545.374 506.139 582.322C507.142 586.832 501.14 589.334 496.561 589.957C492.175 590.555 487.651 591.144 483.374 590.003C479.097 588.861 475.084 585.536 474.547 581.142C471.428 555.632 467.325 530.242 462.252 505.047C461.241 500.028 460.139 494.885 457.344 490.595C454.549 486.305 449.65 482.998 444.562 483.57C439.443 484.146 435.512 488.334 432.667 492.628C425.509 503.432 422.224 516.311 419.878 529.056C415.069 555.182 413.709 581.941 415.845 608.421C416.885 621.317 400.532 631.889 389.199 625.648C385.52 602.8 381.84 579.951 378.16 557.102C376.572 547.241 374.899 537.133 369.925 528.471C368.566 526.104 366.843 523.763 364.334 522.686C357.396 519.707 350.898 527.779 348.283 534.862C335.856 568.53 342.582 605.884 339.559 641.645C339.015 648.088 338.013 654.843 334.055 659.956C330.096 665.068 322.253 667.713 316.962 663.997C312.439 660.821 311.476 654.634 310.907 649.138C308.408 625.021 306.025 600.714 308.251 576.571C310.477 552.427 317.62 528.192 332.448 509.009C339.563 499.804 348.88 491.619 360.229 489.056Z" fill="#3f3a3a" fill-rule="nonzero" opacity="1" stroke="none" vectornator:layerName="path"/>
<path d="M288.424 336.182C325.564 280.105 379.819 228.071 446.886 222.987C508.256 218.334 566.848 255.204 604.501 303.889C642.153 352.574 662.655 411.999 682.535 470.246C692.07 498.182 701.605 526.119 711.14 554.055C716.842 487.664 722.543 421.273 728.244 354.882C733.648 291.94 739.239 228.134 760.925 168.799C769.733 144.699 782.382 120.173 804.634 107.396C826.886 94.6197 860.623 99.4445 871.194 122.825C875.363 99.8544 907.519 90.9605 927.341 103.294C947.163 115.628 955.126 140.985 954.957 164.33C954.799 186.096 976.036 200.832 993.877 213.301C1021.12 232.341 1046.44 256.22 1058.94 287.016C1071.45 317.813 1068.49 356.556 1045 380.077C1033.16 391.935 1017.44 398.976 1003.9 408.858C990.372 418.74 978.257 433.592 979.491 450.303C989.107 580.451 998.723 710.6 1008.34 840.748C1013.08 904.849 1017.81 969.075 1016.21 1033.33C1051.31 1041.17 1092.66 1054.79 1101.41 1089.68C1107.05 1112.14 1095.67 1136.26 1078.22 1151.47C1060.76 1166.69 1038.17 1174.55 1015.82 1180.61C948.168 1198.98 877.668 1204.04 807.625 1206.93C674.423 1212.41 530.799 1207.12 423.817 1127.57C395.263 1106.34 370.416 1080.47 347.792 1053.01C266.155 953.905 212.246 831.236 199.853 703.436C187.46 575.635 217.525 443.233 288.424 336.182M980.381 1033.67C976.894 989.305 973.407 944.939 969.921 900.573C968.134 877.832 966.346 855.091 964.602 832.347C954.065 694.986 945.079 557.507 937.645 419.944C936.568 400.014 955.232 384.935 973.08 376.002C990.928 367.07 1011.44 359.221 1020.69 341.538C1000.98 338.552 997.163 304.981 1015.7 297.645C1011.56 270.641 981.02 258.25 959.044 242.02C927.524 218.741 909.272 178.612 912.44 139.556C899.762 133.461 888.229 150.751 887.277 164.785C886.326 178.82 887.382 196.046 875.374 203.372C864.3 210.128 848.999 202.152 843.324 190.487C837.649 178.823 838.849 165.136 840.176 152.232C840.703 147.109 834.19 143.585 829.251 145.041C824.312 146.498 820.962 150.986 818.182 155.32C788.582 201.469 782.966 258.533 778.956 313.212C766.27 486.199 761.679 659.78 765.203 833.196C765.466 846.108 765.591 859.768 759.114 870.941C752.636 882.114 736.978 889.02 726.361 881.667C718.209 876.022 716.335 864.97 715.149 855.125C695.711 693.795 673.259 529.159 600.095 384.064C571.455 327.265 525.477 268.406 461.897 266.405C405.96 264.644 359.044 308.41 327.605 354.71C259.596 454.865 232.271 580.343 244.827 700.753C257.382 821.164 308.509 936.174 383.435 1031.27C402.535 1055.51 423.325 1078.69 447.834 1097.44C536.243 1165.09 657.128 1165.59 768.424 1163.13C865.091 1160.99 964.769 1158.2 1052.97 1118.58C1063.28 1113.95 1062.7 1097.71 1054.54 1089.89C1046.38 1082.07 1034.29 1080.39 1023.06 1079.08C1011.84 1077.77 999.738 1076.02 991.663 1068.12C982.83 1059.47 981.349 1046 980.381 1033.67Z" fill="#3f3a3a" fill-rule="nonzero" opacity="1" stroke="none" vectornator:layerName="path"/>
</g>
</svg>
